<svg xmlns="http://www.w3.org/2000/svg">
  <defs>
    <!-- Arrow icon -->
    <symbol id="arrow" viewBox="0 0 24 24">
      <path d="M8.59 16.59L13.17 12 8.59 7.41 10 6l6 6-6 6-1.41-1.41z"/>
    </symbol>

    <!-- Info icon -->
    <symbol id="info" viewBox="0 0 24 24">
      <path d="M12 2C6.48 2 2 6.48 2 12s4.48 10 10 10 10-4.48 10-10S17.52 2 12 2zm1 15h-2v-6h2v6zm0-8h-2V7h2v2z"/>
    </symbol>

    <!-- Success icon -->
    <symbol id="success" viewBox="0 0 24 24">
      <path d="M12 2C6.48 2 2 6.48 2 12s4.48 10 10 10 10-4.48 10-10S17.52 2 12 2zm-2 15l-5-5 1.41-1.41L10 14.17l7.59-7.59L19 8l-9 9z"/>
    </symbol>

    <!-- Warning icon -->
    <symbol id="warning" viewBox="0 0 24 24">
      <path d="M1 21h22L12 2 1 21zm12-3h-2v-2h2v2zm0-4h-2v-4h2v4z"/>
    </symbol>

    <!-- Error icon -->
    <symbol id="error" viewBox="0 0 24 24">
      <path d="M12 2C6.48 2 2 6.48 2 12s4.48 10 10 10 10-4.48 10-10S17.52 2 12 2zm1 15h-2v-2h2v2zm0-4h-2V7h2v8z"/>
    </symbol>

    <!-- Close icon -->
    <symbol id="close" viewBox="0 0 24 24">
      <path d="M19 6.41L17.59 5 12 10.59 6.41 5 5 6.41 10.59 12 5 17.59 6.41 19 12 13.41 17.59 19 19 17.59 13.41 12z"/>
    </symbol>

    <!-- Edit icon -->
    <symbol id="edit" viewBox="0 0 24 24">
      <path d="M3 17.25V21h3.75L17.81 9.94l-3.75-3.75L3 17.25zM20.71 7.04c.39-.39.39-1.02 0-1.41l-2.34-2.34c-.39-.39-1.02-.39-1.41 0l-1.83 1.83 3.75 3.75 1.83-1.83z"/>
    </symbol>

    <!-- Menu icon -->
    <symbol id="menu" viewBox="0 0 24 24">
      <path d="M3 18h18v-2H3v2zm0-5h18v-2H3v2zm0-7v2h18V6H3z"/>
    </symbol>

    <!-- Search icon -->
    <symbol id="search" viewBox="0 0 24 24">
      <path d="M15.5 14h-.79l-.28-.27C15.41 12.59 16 11.11 16 9.5 16 5.91 13.09 3 9.5 3S3 5.91 3 9.5 5.91 16 9.5 16c1.61 0 3.09-.59 4.23-1.57l.27.28v.79l5 4.99L20.49 19l-4.99-5zm-6 0C7.01 14 5 11.99 5 9.5S7.01 5 9.5 5 14 7.01 14 9.5 11.99 14 9.5 14z"/>
    </symbol>
  </defs>
</svg> 